<?xml version="1.0" encoding="UTF-8"?>
<!DOCTYPE svg PUBLIC "-//W3C//DTD SVG 1.1//EN" "http://www.w3.org/Graphics/SVG/1.1/DTD/svg11.dtd">
<svg version="1.2" width="34.13mm" height="34.13mm" viewBox="0 0 3413 3413" preserveAspectRatio="xMidYMid" fill-rule="evenodd" stroke-width="28.222" stroke-linejoin="round" xmlns="http://www.w3.org/2000/svg" xmlns:ooo="http://xml.openoffice.org/svg/export" xmlns:xlink="http://www.w3.org/1999/xlink" xmlns:presentation="http://sun.com/xmlns/staroffice/presentation" xmlns:smil="http://www.w3.org/2001/SMIL20/" xmlns:anim="urn:oasis:names:tc:opendocument:xmlns:animation:1.0" xmlns:svg="urn:oasis:names:tc:opendocument:xmlns:svg-compatible:1.0" xml:space="preserve">
 <defs class="ClipPathGroup">
  <clipPath id="presentation_clip_path" clipPathUnits="userSpaceOnUse">
   <rect x="0" y="0" width="3413" height="3413"/>
  </clipPath>
  <clipPath id="presentation_clip_path_shrink" clipPathUnits="userSpaceOnUse">
   <rect x="3" y="3" width="3407" height="3407"/>
  </clipPath>
 </defs>
 <defs class="TextShapeIndex">
  <g ooo:slide="id1" ooo:id-list="id3"/>
 </defs>
 <defs class="EmbeddedBulletChars">
  <g id="bullet-char-template-57356" transform="scale(0.00048828125,-0.00048828125)">
   <path d="M 580,1141 L 1163,571 580,0 -4,571 580,1141 Z"/>
  </g>
  <g id="bullet-char-template-57354" transform="scale(0.00048828125,-0.00048828125)">
   <path d="M 8,1128 L 1137,1128 1137,0 8,0 8,1128 Z"/>
  </g>
  <g id="bullet-char-template-10146" transform="scale(0.00048828125,-0.00048828125)">
   <path d="M 174,0 L 602,739 174,1481 1456,739 174,0 Z M 1358,739 L 309,1346 659,739 1358,739 Z"/>
  </g>
  <g id="bullet-char-template-10132" transform="scale(0.00048828125,-0.00048828125)">
   <path d="M 2015,739 L 1276,0 717,0 1260,543 174,543 174,936 1260,936 717,1481 1274,1481 2015,739 Z"/>
  </g>
  <g id="bullet-char-template-10007" transform="scale(0.00048828125,-0.00048828125)">
   <path d="M 0,-2 C -7,14 -16,27 -25,37 L 356,567 C 262,823 215,952 215,954 215,979 228,992 255,992 264,992 276,990 289,987 310,991 331,999 354,1012 L 381,999 492,748 772,1049 836,1024 860,1049 C 881,1039 901,1025 922,1006 886,937 835,863 770,784 769,783 710,716 594,584 L 774,223 C 774,196 753,168 711,139 L 727,119 C 717,90 699,76 672,76 641,76 570,178 457,381 L 164,-76 C 142,-110 111,-127 72,-127 30,-127 9,-110 8,-76 1,-67 -2,-52 -2,-32 -2,-23 -1,-13 0,-2 Z"/>
  </g>
  <g id="bullet-char-template-10004" transform="scale(0.00048828125,-0.00048828125)">
   <path d="M 285,-33 C 182,-33 111,30 74,156 52,228 41,333 41,471 41,549 55,616 82,672 116,743 169,778 240,778 293,778 328,747 346,684 L 369,508 C 377,444 397,411 428,410 L 1163,1116 C 1174,1127 1196,1133 1229,1133 1271,1133 1292,1118 1292,1087 L 1292,965 C 1292,929 1282,901 1262,881 L 442,47 C 390,-6 338,-33 285,-33 Z"/>
  </g>
  <g id="bullet-char-template-9679" transform="scale(0.00048828125,-0.00048828125)">
   <path d="M 813,0 C 632,0 489,54 383,161 276,268 223,411 223,592 223,773 276,916 383,1023 489,1130 632,1184 813,1184 992,1184 1136,1130 1245,1023 1353,916 1407,772 1407,592 1407,412 1353,268 1245,161 1136,54 992,0 813,0 Z"/>
  </g>
  <g id="bullet-char-template-8226" transform="scale(0.00048828125,-0.00048828125)">
   <path d="M 346,457 C 273,457 209,483 155,535 101,586 74,649 74,723 74,796 101,859 155,911 209,963 273,989 346,989 419,989 480,963 531,910 582,859 608,796 608,723 608,648 583,586 532,535 482,483 420,457 346,457 Z"/>
  </g>
  <g id="bullet-char-template-8211" transform="scale(0.00048828125,-0.00048828125)">
   <path d="M -4,459 L 1135,459 1135,606 -4,606 -4,459 Z"/>
  </g>
  <g id="bullet-char-template-61548" transform="scale(0.00048828125,-0.00048828125)">
   <path d="M 173,740 C 173,903 231,1043 346,1159 462,1274 601,1332 765,1332 928,1332 1067,1274 1183,1159 1299,1043 1357,903 1357,740 1357,577 1299,437 1183,322 1067,206 928,148 765,148 601,148 462,206 346,322 231,437 173,577 173,740 Z"/>
  </g>
 </defs>
 <g>
  <g id="id2" class="Master_Slide">
   <g id="bg-id2" class="Background"/>
   <g id="bo-id2" class="BackgroundObjects"/>
  </g>
 </g>
 <g class="SlideGroup">
  <g>
   <g id="container-id1">
    <g id="id1" class="Slide" clip-path="url(#presentation_clip_path)">
     <g class="Page">
      <g class="Group">
       <g class="com.sun.star.drawing.PolyPolygonShape">
        <g id="id3">
         <rect class="BoundingBox" stroke="none" fill="none" x="469" y="544" width="2476" height="2339"/>
         <path fill="rgb(255,255,255)" stroke="none" d="M 1629,1941 L 1629,1950 1630,1957 1632,1965 1635,1971 1639,1977 1643,1983 1648,1988 1653,1993 1658,1997 1664,2000 1671,2003 1678,2005 1692,2009 1706,2010 1720,2009 1734,2005 1741,2003 1748,2000 1754,1997 1759,1993 1764,1988 1769,1983 1773,1977 1777,1971 1780,1965 1782,1957 1783,1950 1783,1941 1783,1711 1783,1703 1782,1696 1780,1688 1777,1682 1773,1676 1769,1670 1764,1665 1759,1660 1754,1656 1748,1653 1741,1650 1734,1648 1720,1644 1706,1643 1692,1644 1678,1648 1671,1650 1664,1653 1658,1656 1653,1660 1648,1665 1643,1670 1639,1676 1635,1682 1632,1688 1630,1696 1629,1703 1629,1711 1629,1941 Z M 2515,1743 L 2515,1728 2513,1712 2511,1697 2507,1682 2503,1667 2497,1652 2491,1638 2483,1624 2475,1610 2466,1598 2456,1585 2445,1574 2434,1563 2421,1553 2409,1544 2395,1536 2381,1528 2367,1522 2352,1516 2337,1512 2322,1508 2307,1506 2291,1504 2275,1504 2260,1504 2244,1506 2229,1508 2213,1512 2198,1516 2184,1522 2169,1528 2155,1536 2142,1544 2129,1553 2117,1563 2106,1574 2095,1585 2085,1598 2076,1610 2067,1624 2060,1638 2053,1652 2048,1667 2043,1682 2039,1697 2037,1712 2035,1728 2034,1743 2035,1760 2037,1775 2039,1791 2043,1806 2048,1821 2053,1836 2060,1851 2067,1864 2076,1878 2085,1891 2095,1903 2106,1914 2117,1925 2129,1935 2142,1944 2155,1952 2169,1960 2184,1966 2198,1972 2213,1976 2229,1980 2244,1982 2260,1984 2275,1984 2291,1984 2307,1982 2322,1980 2337,1976 2352,1972 2367,1966 2381,1960 2395,1952 2409,1944 2421,1935 2434,1925 2445,1914 2456,1903 2466,1891 2475,1878 2483,1864 2491,1851 2497,1836 2503,1821 2507,1806 2511,1791 2513,1775 2515,1760 2515,1743 Z M 1378,1743 L 1377,1728 1376,1712 1373,1697 1369,1682 1365,1667 1359,1652 1353,1638 1346,1624 1337,1610 1328,1598 1318,1585 1307,1574 1296,1563 1284,1553 1271,1544 1258,1536 1244,1528 1229,1522 1215,1516 1200,1512 1184,1508 1169,1506 1153,1504 1138,1504 1122,1504 1106,1506 1091,1508 1076,1512 1061,1516 1046,1522 1032,1528 1018,1536 1004,1544 992,1553 979,1563 968,1574 957,1585 947,1598 938,1610 930,1624 922,1638 916,1652 910,1667 905,1682 902,1697 899,1712 897,1728 897,1743 897,1760 899,1775 902,1791 905,1806 910,1821 916,1836 922,1851 930,1864 938,1878 947,1891 957,1903 968,1914 979,1925 992,1935 1004,1944 1018,1952 1032,1960 1046,1966 1061,1972 1076,1976 1091,1980 1106,1982 1122,1984 1138,1984 1153,1984 1169,1982 1184,1980 1200,1976 1215,1972 1229,1966 1244,1960 1258,1952 1271,1944 1284,1935 1296,1925 1307,1914 1318,1903 1328,1891 1337,1878 1346,1864 1353,1851 1359,1836 1365,1821 1369,1806 1373,1791 1376,1775 1377,1760 1378,1743 Z M 620,2136 L 620,1480 580,1427 542,1373 505,1318 470,1263 519,1186 572,1112 630,1042 692,975 748,1003 804,1033 858,1065 911,1100 965,1052 1023,1008 1083,967 1146,930 1137,861 1131,793 1127,725 1125,657 1204,622 1285,591 1368,566 1453,545 1486,603 1518,662 1548,722 1576,783 1608,779 1641,775 1674,774 1706,773 1739,774 1772,775 1805,779 1837,783 1865,722 1894,662 1926,603 1960,545 2045,566 2128,591 2209,622 2288,657 2286,725 2282,793 2275,861 2267,930 2330,967 2390,1008 2448,1052 2502,1100 2555,1065 2609,1033 2664,1003 2721,975 2753,1008 2783,1042 2841,1112 2894,1186 2943,1263 2907,1318 2871,1373 2833,1427 2793,1480 2793,2136 2387,2173 2383,2174 2380,2175 2376,2176 2373,2177 2370,2178 2367,2180 2364,2182 2361,2184 2359,2187 2357,2190 2355,2193 2353,2196 2351,2199 2350,2203 2348,2207 2347,2211 2336,2390 1984,2416 1962,2254 1962,2251 1961,2247 1960,2244 1958,2241 1956,2238 1955,2235 1952,2232 1950,2229 1947,2227 1944,2225 1941,2222 1938,2220 1934,2218 1931,2217 1922,2213 1491,2213 1482,2217 1478,2218 1475,2220 1471,2222 1468,2225 1465,2227 1463,2229 1460,2232 1458,2235 1456,2238 1454,2241 1453,2244 1452,2247 1450,2251 1450,2254 1429,2416 1076,2390 1066,2211 1064,2207 1063,2203 1062,2199 1060,2196 1058,2193 1056,2190 1054,2187 1051,2184 1049,2182 1046,2180 1043,2178 1040,2177 1037,2176 1033,2175 1030,2174 1026,2173 620,2136 Z M 620,2224 L 978,2256 991,2441 992,2444 993,2447 994,2450 995,2453 997,2456 999,2458 1001,2461 1003,2463 1005,2465 1008,2467 1011,2469 1014,2470 1017,2472 1020,2473 1024,2474 1028,2475 1461,2505 1465,2505 1468,2505 1472,2504 1476,2503 1479,2502 1482,2501 1485,2500 1488,2498 1490,2496 1493,2494 1495,2491 1497,2488 1499,2485 1501,2482 1502,2479 1504,2475 1531,2302 1882,2302 1909,2475 1911,2479 1912,2482 1914,2485 1916,2488 1918,2491 1920,2494 1923,2496 1925,2498 1928,2500 1931,2501 1934,2502 1937,2503 1941,2504 1945,2505 1948,2505 1952,2505 2384,2475 2388,2474 2392,2473 2396,2472 2399,2470 2402,2469 2405,2467 2408,2465 2410,2463 2412,2461 2414,2458 2416,2456 2418,2453 2419,2450 2420,2447 2421,2444 2422,2441 2435,2256 2793,2224 2793,2328 2787,2395 2768,2458 2739,2516 2699,2570 2650,2620 2591,2666 2525,2707 2452,2743 2288,2804 2104,2847 1908,2873 1705,2882 1503,2873 1307,2847 1123,2804 959,2743 886,2707 820,2666 762,2620 713,2570 673,2516 644,2458 626,2395 620,2328 620,2224 Z"/>
        </g>
       </g>
      </g>
     </g>
    </g>
   </g>
  </g>
 </g>
</svg>